<svg width="310" height="40" viewBox="0 0 310 40" fill="none" xmlns="http://www.w3.org/2000/svg">
<g clip-path="url(#clip0_770_2760)">
<path d="M60.6107 17.8626C59.771 17.0992 58.7023 16.7176 57.4046 16.7176C56.1069 16.7176 55.0382 17.0992 54.1985 17.8626C53.3588 18.7023 52.9008 19.6947 52.9008 20.9924C52.9008 22.2137 53.3588 23.2824 54.1985 24.1221C54.9618 24.8855 56.0305 25.2672 57.4046 25.2672C58.7786 25.2672 59.771 24.8855 60.6107 24.1221L61.603 22.7481L61.9084 21.0687L61.603 19.313L60.6107 17.8626ZM59.771 23.3588C59.1603 23.9695 58.3969 24.2748 57.4046 24.2748C56.4122 24.2748 55.6488 23.9695 55.0382 23.3588C54.4275 22.7481 54.1221 21.9847 54.1221 20.9924C54.1221 20 54.4275 19.2366 55.0382 18.626C55.6488 18.0153 56.4122 17.7099 57.4046 17.7099C58.3206 17.7099 59.1603 18.0153 59.771 18.626C60.3817 19.2366 60.687 20 60.687 20.9924C60.687 21.9847 60.3817 22.7481 59.771 23.3588ZM70.5343 23.8931L70.3053 22.8244L69.8473 21.5267L68.8549 21.145C70.0763 20.916 70.687 20.229 70.687 19.1603C70.687 18.3206 70.3817 17.7099 69.8473 17.4046L68.9313 17.0992C68.5496 17.0229 68.0916 17.0229 67.4046 17.0229H63.7404V25.2672H64.8855V21.6794H67.0992C67.7862 21.6794 68.3206 21.7557 68.6259 21.9084L69.1603 22.8244L69.3893 24.1985L69.542 24.8855L69.6946 25.3435H70.916L70.687 24.8855L70.5343 23.8931ZM67.0229 20.5344H64.8855V17.8626H67.0229C67.9389 17.8626 68.6259 17.9389 68.9313 18.0916L69.542 19.1603L68.9313 20.3053C68.6259 20.458 68.0153 20.5344 67.0229 20.5344ZM79.6946 22.6718C79.6946 23.5115 79.3893 24.1221 78.7023 24.5802C78.0153 25.0382 77.0229 25.2672 75.8015 25.2672C74.6565 25.2672 73.7404 25.0382 73.1298 24.5802C72.5191 24.1221 72.2137 23.5115 72.2137 22.6718V22.5954H73.4351L74.1221 23.8931C74.5801 24.1985 75.1908 24.3511 76.0305 24.3511C76.7939 24.3511 77.4809 24.1985 77.8626 23.8931L78.5496 22.7481L77.8626 21.8321L76.9466 21.6031L75.8015 21.4504L74.5801 21.2214L73.5878 20.916C72.8244 20.5344 72.4427 19.9237 72.4427 19.084C72.4427 18.3969 72.7481 17.7863 73.4351 17.4046C74.0458 16.9466 74.9618 16.7176 76.1069 16.7176C77.1756 16.7176 78.0153 16.9466 78.6259 17.3282C79.2366 17.7099 79.4656 18.3206 79.4656 19.084H78.3206L77.7099 18.0153C77.3282 17.7863 76.7939 17.6336 76.1069 17.6336C75.3435 17.6336 74.7328 17.7863 74.3511 18.0153L73.7404 19.1603L74.3511 20L74.9618 20.1527C75.8015 20.3053 76.4885 20.3817 77.0992 20.458C78.0916 20.6107 78.7786 20.8397 79.1603 21.145C79.4656 21.5267 79.6946 21.9847 79.6946 22.6718ZM81.9847 24.1221H88.1679V25.1145H80.6107V23.9695L86.6412 17.8626H80.916V16.8702H88.0153V18.0153L81.9847 24.1221ZM92.6717 16.8702L88.4733 25.1145H89.6946L90.8397 22.9008H95.8778L96.9465 25.1145H98.2443L94.1221 16.8702H92.6717ZM91.2977 21.9847L93.4351 17.8626L95.4198 21.9847H91.2977ZM93.2824 16.1069H92.5191L93.8168 14.5802H95.1908L93.2824 16.1069ZM103.511 20.8397H107.176V24.4275C105.954 24.9618 104.733 25.2672 103.435 25.2672C101.985 25.2672 100.84 24.8855 100 24.1221C99.1603 23.3588 98.7786 22.3664 98.7786 21.0687C98.7786 19.771 99.2366 18.7023 100.076 17.9389C100.916 17.1756 102.137 16.7939 103.664 16.7939C104.656 16.7939 105.496 17.0229 106.107 17.4046C106.718 17.7863 107.023 18.3969 107.099 19.084H105.878L105.114 18.0916C104.733 17.8626 104.198 17.7099 103.511 17.7099C102.443 17.7099 101.603 18.0153 100.916 18.626C100.305 19.2366 100 20 100 21.0687C100 22.0611 100.305 22.9008 100.916 23.4351C101.527 24.0458 102.366 24.3511 103.511 24.3511C104.504 24.3511 105.343 24.1985 106.031 23.8931V21.8321H103.511V20.8397ZM116.412 17.8626C115.572 17.0992 114.58 16.7176 113.206 16.7176C111.908 16.7176 110.84 17.0992 110 17.8626C109.084 18.7023 108.702 19.6947 108.702 20.9924C108.702 22.2137 109.16 23.2824 110 24.1221C110.763 24.8855 111.832 25.2672 113.206 25.2672C114.58 25.2672 115.572 24.8855 116.412 24.1221L117.405 22.7481L117.71 21.0687L117.405 19.313L116.412 17.8626ZM115.572 23.3588C114.962 23.9695 114.198 24.2748 113.206 24.2748C112.214 24.2748 111.45 23.9695 110.84 23.3588C110.229 22.7481 109.924 21.9847 109.924 20.9924C109.924 20 110.229 19.2366 110.84 18.626C111.45 18.0153 112.214 17.7099 113.206 17.7099C114.122 17.7099 114.962 18.0153 115.572 18.626C116.183 19.2366 116.489 20 116.489 20.9924C116.489 21.9847 116.183 22.7481 115.572 23.3588ZM126.565 22.6718C126.565 23.5115 126.26 24.1221 125.572 24.5802C124.885 25.0382 123.893 25.2672 122.672 25.2672C121.527 25.2672 120.611 25.0382 120 24.5802C119.389 24.1221 119.084 23.5115 119.084 22.6718V22.5954H120.305L120.992 23.8931C121.45 24.1985 122.061 24.3511 122.901 24.3511C123.664 24.3511 124.351 24.1985 124.733 23.8931L125.42 22.7481L124.733 21.8321L123.817 21.6031L122.672 21.4504L121.45 21.2214L120.458 20.916C119.695 20.5344 119.313 19.9237 119.313 19.084C119.313 18.3969 119.618 17.7863 120.305 17.4046C120.916 16.9466 121.832 16.7176 122.977 16.7176C124.046 16.7176 124.885 16.9466 125.496 17.3282C126.107 17.7099 126.336 18.3206 126.336 19.084H125.191L124.58 18.0153C124.198 17.7863 123.664 17.6336 122.977 17.6336C122.214 17.6336 121.603 17.7863 121.221 18.0153L120.611 19.1603L121.221 20L121.832 20.1527C122.672 20.3053 123.359 20.3817 123.969 20.458C124.962 20.6107 125.649 20.8397 126.031 21.145C126.26 21.5267 126.565 21.9847 126.565 22.6718ZM134.885 20.5344L139.847 25.1145H138.168L133.435 20.7634V25.1145H132.29V16.8702H133.435V20.458L137.863 16.8702H139.389L134.885 20.5344ZM147.939 17.8626C147.099 17.0992 146.031 16.7176 144.733 16.7176C143.435 16.7176 142.366 17.0992 141.527 17.8626C140.611 18.7023 140.229 19.6947 140.229 20.9924C140.229 22.2137 140.687 23.2824 141.527 24.1221C142.29 24.8855 143.359 25.2672 144.733 25.2672C146.107 25.2672 147.099 24.8855 147.939 24.1221L148.931 22.7481L149.237 21.0687L148.931 19.313L147.939 17.8626ZM147.099 23.3588C146.489 23.9695 145.725 24.2748 144.733 24.2748C143.74 24.2748 142.977 23.9695 142.366 23.3588C141.756 22.7481 141.45 21.9847 141.45 20.9924C141.45 20 141.756 19.2366 142.366 18.626C142.977 18.0153 143.74 17.7099 144.733 17.7099C145.649 17.7099 146.489 18.0153 147.099 18.626C147.71 19.2366 148.015 20 148.015 20.9924C148.015 21.9847 147.71 22.7481 147.099 23.3588ZM144.58 16.1069H143.817L145.114 14.5802H146.489L144.58 16.1069ZM157.863 23.8931L157.634 22.8244L157.176 21.5267L156.183 21.145C157.405 20.916 158.015 20.229 158.015 19.1603C158.015 18.3206 157.71 17.7099 157.176 17.4046L156.26 17.0992L154.733 17.0229H151.145V25.2672H152.214V21.6794H154.427C155.114 21.6794 155.649 21.7557 155.954 21.9084L156.489 22.8244L156.718 24.1985L156.87 24.8855L157.023 25.3435H158.244L158.015 24.8855L157.863 23.8931ZM154.351 20.5344H152.214V17.8626H154.351C155.267 17.8626 155.954 17.9389 156.26 18.0916L156.87 19.1603L156.26 20.3053C155.954 20.458 155.343 20.5344 154.351 20.5344ZM166.565 16.8702H167.71V25.1145H166.565V21.2214H161.298V25.1145H160.153V16.8702H161.298V20.229H166.565V16.8702ZM173.74 16.1069H172.977L174.275 14.5802H175.649L173.74 16.1069ZM173.13 16.8702L168.931 25.1145H170.153L171.298 22.9008H176.336L177.405 25.1145H178.702L174.58 16.8702H173.13ZM171.679 21.9847L173.817 17.8626L175.801 21.9847H171.679ZM180.382 24.1221H186.565V25.1145H179.008V23.9695L185.038 17.8626H179.237V16.8702H186.336V18.0153L180.382 24.1221ZM188.168 16.8702H189.313V25.1145H188.168V16.8702ZM196.03 16.8702H202.137V17.8626H197.176V20.3053H201.832V21.2977H197.176V25.1908H196.03V16.8702ZM206.718 16.1069H205.954L207.252 14.5802H208.626L206.718 16.1069ZM208.244 16.1069L209.542 14.5802H210.916L209.008 16.1069H208.244ZM210.763 17.8626C209.924 17.0992 208.855 16.7176 207.557 16.7176C206.26 16.7176 205.191 17.0992 204.351 17.8626C203.435 18.7023 203.053 19.6947 203.053 20.9924C203.053 22.2137 203.511 23.2824 204.351 24.1221C205.114 24.8855 206.183 25.2672 207.557 25.2672C208.931 25.2672 209.924 24.8855 210.763 24.1221L211.756 22.7481L212.061 21.0687L211.756 19.313L210.763 17.8626ZM209.924 23.3588C209.313 23.9695 208.55 24.2748 207.557 24.2748C206.565 24.2748 205.801 23.9695 205.191 23.3588C204.58 22.7481 204.275 21.9847 204.275 20.9924C204.275 20 204.58 19.2366 205.191 18.626C205.801 18.0153 206.565 17.7099 207.557 17.7099C208.473 17.7099 209.313 18.0153 209.924 18.626C210.534 19.2366 210.84 20 210.84 20.9924C210.84 21.9847 210.534 22.7481 209.924 23.3588ZM213.969 16.8702H215.114V25.1145H213.969V16.8702ZM221.832 20.8397H225.496V24.4275C224.275 24.9618 223.053 25.2672 221.756 25.2672C220.305 25.2672 219.16 24.8855 218.321 24.1221C217.481 23.3588 217.099 22.3664 217.099 21.0687C217.099 19.771 217.557 18.7023 218.397 17.9389C219.237 17.1756 220.458 16.7939 221.985 16.7939C222.977 16.7939 223.817 17.0229 224.427 17.4046C225.038 17.7863 225.343 18.3969 225.42 19.084H224.198L223.435 18.0916C223.053 17.8626 222.519 17.7099 221.832 17.7099C220.763 17.7099 219.924 18.0153 219.237 18.626C218.626 19.2366 218.321 20 218.321 21.0687C218.321 22.0611 218.626 22.9008 219.237 23.4351C219.847 24.0458 220.687 24.3511 221.832 24.3511C222.824 24.3511 223.664 24.1985 224.351 23.8931V21.8321H221.832V20.8397ZM230.611 16.8702L226.412 25.1145H227.634L228.779 22.9008H233.817L234.885 25.1145H236.183L232.061 16.8702H230.611ZM229.16 21.9847L231.298 17.8626L233.282 21.9847H229.16ZM237.863 24.1221H244.046V25.1145H236.488V23.9695L242.519 17.8626H236.718V16.8702H243.817V18.0153L237.863 24.1221ZM249.695 20.8397H253.359V24.4275C252.137 24.9618 250.916 25.2672 249.618 25.2672C248.168 25.2672 247.023 24.8855 246.183 24.1221C245.343 23.3588 244.962 22.3664 244.962 21.0687C244.962 19.771 245.42 18.7023 246.26 17.9389C247.099 17.1756 248.321 16.7939 249.847 16.7939C250.84 16.7939 251.679 17.0229 252.29 17.4046C252.901 17.7863 253.206 18.3969 253.282 19.084H252.061L251.298 18.0916C250.916 17.8626 250.382 17.7099 249.695 17.7099C248.626 17.7099 247.786 18.0153 247.099 18.626C246.489 19.2366 246.183 20 246.183 21.0687C246.183 22.0611 246.489 22.9008 247.099 23.4351C247.71 24.0458 248.55 24.3511 249.695 24.3511C250.687 24.3511 251.527 24.1985 252.214 23.8931V21.8321H249.695V20.8397ZM258.473 16.8702L254.275 25.1145H255.496L256.641 22.9008H261.679L262.748 25.1145H264.046L259.924 16.8702H258.473ZM257.023 21.9847L259.16 17.8626L261.145 21.9847H257.023ZM263.588 16.8702H271.603V17.8626H268.168V25.1145H267.023V17.8626H263.588V16.8702ZM276.794 16.1069H276.03L277.328 14.5802H278.702L276.794 16.1069ZM280.153 17.8626C279.313 17.0992 278.244 16.7176 276.947 16.7176C275.649 16.7176 274.58 17.0992 273.74 17.8626C272.824 18.7023 272.443 19.6947 272.443 20.9924C272.443 22.2137 272.901 23.2824 273.74 24.1221C274.504 24.8855 275.572 25.2672 276.947 25.2672C278.244 25.2672 279.313 24.8855 280.153 24.1221L281.145 22.7481L281.45 21.0687L281.145 19.313L280.153 17.8626ZM279.389 23.3588C278.779 23.9695 278.015 24.2748 277.023 24.2748C276.03 24.2748 275.267 23.9695 274.656 23.3588C274.046 22.7481 273.74 21.9847 273.74 20.9924C273.74 20 274.046 19.2366 274.656 18.626C275.267 18.0153 276.03 17.7099 277.023 17.7099C277.939 17.7099 278.779 18.0153 279.389 18.626C280 19.2366 280.305 20 280.305 20.9924C280.229 21.9847 279.924 22.7481 279.389 23.3588ZM290.305 22.6718C290.305 23.5115 290 24.1221 289.313 24.5802C288.626 25.0382 287.634 25.2672 286.412 25.2672C285.267 25.2672 284.351 25.0382 283.74 24.5802C283.13 24.1221 282.824 23.5115 282.824 22.6718V22.5954H284.046L284.733 23.8931C285.191 24.1985 285.801 24.3511 286.641 24.3511C287.405 24.3511 288.092 24.1985 288.473 23.8931L289.16 22.7481L288.473 21.8321L287.557 21.6031L286.412 21.4504L285.191 21.2214L284.198 20.916C283.435 20.5344 283.053 19.9237 283.053 19.084C283.053 18.3969 283.359 17.7863 284.046 17.4046C284.733 16.9466 285.572 16.7176 286.717 16.7176C287.786 16.7176 288.626 16.9466 289.237 17.3282C289.847 17.7099 290.076 18.3206 290.076 19.084H288.931L288.321 18.0153C287.939 17.7863 287.405 17.6336 286.717 17.6336C285.954 17.6336 285.343 17.7863 284.962 18.0153L284.351 19.1603L284.885 20L285.496 20.1527C286.336 20.3053 287.023 20.3817 287.634 20.458C288.626 20.6107 289.313 20.8397 289.695 21.145C290.076 21.5267 290.305 21.9847 290.305 22.6718ZM295.649 16.1069H294.885L296.183 14.5802H297.557L295.649 16.1069ZM295.038 16.8702L290.84 25.1145H292.061L293.13 22.9008H298.168L299.237 25.1145H300.534L296.412 16.8702H295.038ZM293.588 21.9847L295.725 17.8626L297.71 21.9847H293.588ZM309.466 20.8397V24.4275C308.244 24.9618 307.023 25.2672 305.725 25.2672C304.275 25.2672 303.13 24.8855 302.29 24.1221C301.45 23.3588 301.069 22.3664 301.069 21.0687C301.069 19.771 301.527 18.7023 302.366 17.9389C303.206 17.1756 304.427 16.7939 305.954 16.7939C306.947 16.7939 307.786 17.0229 308.397 17.4046C309.008 17.7863 309.313 18.3969 309.389 19.084H308.168L307.405 18.0916C307.023 17.8626 306.488 17.7099 305.801 17.7099C304.733 17.7099 303.893 18.0153 303.206 18.626C302.595 19.2366 302.29 20 302.29 21.0687C302.29 22.0611 302.595 22.9008 303.206 23.4351C303.817 24.0458 304.656 24.3511 305.801 24.3511C306.794 24.3511 307.634 24.1985 308.321 23.8931V21.8321H305.801V20.916H309.466V20.8397Z" fill="#211E1C"/>
<path fill-rule="evenodd" clip-rule="evenodd" d="M34.1985 22.1374C34.2748 21.4504 34.3511 20.7634 34.3511 20C34.3511 19.2366 34.2748 18.5496 34.1985 17.8626L38.7023 13.3588C39.4656 15.4198 39.8473 17.7099 39.8473 20C39.8473 22.2901 39.4656 24.5802 38.7023 26.6412L34.1985 22.1374ZM19.9237 34.5038C11.9847 34.5038 5.49618 28.0153 5.49618 20.0763C5.49618 12.1374 11.9847 5.64886 19.9237 5.64886C23.1298 5.64886 26.1832 6.71756 28.5496 8.54962L32.5191 4.58015C29.084 1.75573 24.7328 0.0763359 19.9237 0.0763359C8.9313 0.152672 0 9.08397 0 20.0763C0 31.0687 8.9313 40 19.9237 40C24.6565 40 29.0076 38.3206 32.4427 35.5725L28.5496 31.6794C26.1069 33.4351 23.1298 34.5038 19.9237 34.5038ZM19.6183 29.0076V10.9924H13.8168V29.0076H19.6183ZM48.7786 0H40.6107L20.5344 20.0763L40.458 40H48.626L28.7023 20.0763L48.7786 0Z" fill="#0091CA"/>
</g>
<defs>
<clipPath id="clip0_770_2760">
<rect width="309.466" height="40" fill="white"/>
</clipPath>
</defs>
</svg>
